<svg width="61" height="61" viewBox="0 0 61 61" fill="none" xmlns="http://www.w3.org/2000/svg">
<path d="M18.1364 60.612C8.19495 60.612 0.136353 52.5534 0.136353 42.612V18.612C0.136353 8.67064 8.19495 0.612038 18.1364 0.612038H42.1364C52.0778 0.612038 60.1364 8.67064 60.1364 18.612V42.612C60.1364 52.5534 52.0778 60.612 42.1364 60.612H18.1364Z" fill="black"/>
<path d="M30.1364 12.6121C20.1948 12.6121 12.1364 20.6705 12.1364 30.612C12.1364 40.5536 20.1948 48.612 30.1364 48.612C40.0779 48.612 48.1363 40.5536 48.1363 30.612C48.1363 20.6705 40.0779 12.6121 30.1364 12.6121ZM27.7105 40.4013C26.0891 42.024 23.3421 41.9063 20.3679 38.9336C17.3951 35.9594 17.9213 30.612 17.9213 30.612C17.9213 30.612 23.2687 30.0859 26.2428 33.06C29.2156 36.0328 29.3333 38.7799 27.7105 40.4013ZM25.9825 25.7659C25.9825 21.5608 30.1364 18.1505 30.1364 18.1505C30.1364 18.1505 34.2902 21.5608 34.2902 25.7659C34.2902 29.971 32.4293 31.9966 30.1364 31.9966C27.8434 31.9966 25.9825 29.971 25.9825 25.7659ZM39.9048 38.9336C36.9307 41.9063 34.1836 42.024 32.5622 40.4013C30.9394 38.7799 31.0571 36.0328 34.0299 33.0586C37.004 30.0859 42.3514 30.612 42.3514 30.612C42.3514 30.612 42.8776 35.9594 39.9048 38.9336Z" fill="white"/>
</svg>
